<?xml version="1.0" standalone="no"?>
<!DOCTYPE svg PUBLIC "-//W3C//DTD SVG 20010904//EN"
 "http://www.w3.org/TR/2001/REC-SVG-20010904/DTD/svg10.dtd">
<svg version="1.0" xmlns="http://www.w3.org/2000/svg"
 width="1280.000000pt" height="719.000000pt" viewBox="0 0 1280.000000 719.000000"
 preserveAspectRatio="xMidYMid meet">

<g transform="translate(0.000000,719.000000) scale(0.100000,-0.100000)"
fill="#000000" stroke="none">
<path d="M6185 5375 c-345 -59 -644 -252 -843 -543 -160 -233 -230 -478 -219
-763 6 -153 31 -296 68 -384 4 -11 22 -54 39 -95 17 -41 35 -77 39 -80 4 -3
20 -30 34 -60 15 -30 41 -70 57 -89 17 -18 30 -37 30 -41 0 -13 185 -195 228
-224 23 -16 42 -32 42 -36 0 -5 21 -18 48 -31 46 -22 122 -68 132 -80 9 -10
68 -28 74 -22 3 4 6 2 6 -4 0 -11 81 -43 109 -43 9 0 30 -7 46 -16 17 -9 44
-16 61 -17 46 -3 31 -27 -17 -27 -28 0 -39 4 -39 15 0 11 -11 15 -40 15 -29 0
-40 4 -40 15 0 11 -12 15 -45 15 -36 0 -50 -6 -77 -32 -33 -32 -33 -32 -36 -9
-2 13 2 28 10 33 9 7 8 8 -5 4 -10 -3 -21 -6 -23 -6 -2 0 -4 -18 -4 -40 0 -22
5 -40 10 -40 6 0 10 -4 10 -10 0 -6 -33 -10 -80 -10 -73 0 -80 -2 -80 -20 0
-17 7 -20 40 -20 22 0 40 -4 40 -10 0 -5 -9 -10 -20 -10 -17 0 -20 -7 -20 -40
0 -33 -3 -40 -20 -40 -17 0 -20 7 -20 40 0 39 -1 40 -34 40 -19 0 -38 -5 -42
-12 -4 -6 -3 -8 4 -4 11 7 62 -12 62 -24 0 -10 -68 -40 -90 -40 -18 0 -20 -7
-20 -55 0 -48 -2 -55 -20 -55 -18 0 -20 7 -20 71 0 63 -2 70 -15 59 -11 -9
-13 -15 -5 -20 7 -4 -1 -12 -19 -20 -39 -16 -39 -24 -2 -40 l30 -12 -46 -44
c-50 -49 -58 -51 -85 -27 -17 15 -18 14 -18 -45 0 -37 4 -62 11 -62 5 0 7 -5
3 -11 -5 -9 3 -10 30 -5 45 9 103 -2 110 -19 4 -11 -3 -10 -31 1 -33 14 -52
14 -105 -2 -13 -4 -18 0 -18 15 0 19 -35 39 -47 27 -4 -3 -1 -6 5 -6 7 0 12
-5 12 -11 0 -8 -12 -10 -35 -6 -20 3 -33 2 -30 -2 8 -13 53 -19 63 -9 6 6 12
6 17 -1 3 -6 -1 -14 -9 -17 -22 -8 -106 5 -106 17 0 5 5 9 10 9 6 0 10 4 10
10 0 5 -7 7 -15 4 -8 -4 -15 -12 -15 -19 0 -15 -25 -26 -43 -19 -7 2 -21 -2
-32 -10 -11 -9 -15 -16 -8 -16 6 0 15 5 18 10 3 6 9 10 13 10 4 0 6 -112 4
-249 -3 -241 -3 -250 17 -270 12 -12 33 -21 48 -21 20 0 24 -3 16 -11 -8 -8
-22 -7 -52 7 l-40 19 -3 220 c-1 152 -4 192 -7 130 -3 -49 -9 -81 -12 -70 -7
19 -7 19 -14 -2 -4 -13 -15 -23 -24 -23 -13 0 -14 -2 -1 -9 8 -6 18 -7 22 -5
4 3 8 -31 8 -76 0 -61 -4 -82 -14 -86 -12 -5 -13 -11 -4 -30 12 -26 24 -31 31
-11 2 6 4 0 3 -15 0 -16 -4 -28 -7 -28 -14 0 -15 -39 -5 -125 10 -80 9 -94 -6
-127 -10 -20 -15 -45 -11 -54 4 -12 3 -15 -5 -10 -8 5 -11 0 -9 -16 1 -14 -4
-23 -13 -24 -8 0 -9 1 -2 3 13 5 17 23 5 23 -5 0 -19 -9 -33 -19 -22 -17 -22
-19 -5 -18 17 2 21 -5 23 -40 3 -35 7 -43 23 -43 24 0 25 -26 0 -39 -31 -17
-34 -41 -6 -41 16 0 25 6 25 16 0 14 2 15 17 3 15 -13 15 -14 0 -17 -12 -3
-17 -14 -17 -43 0 -39 0 -39 40 -39 45 0 54 -14 15 -24 -14 -4 -25 -11 -25
-16 0 -5 11 -12 25 -16 24 -6 25 -10 25 -77 0 -58 4 -75 21 -93 17 -18 19 -26
10 -42 -20 -37 -14 -52 20 -52 24 0 41 -10 67 -37 l36 -38 -37 -3 c-50 -4 -47
-22 3 -22 22 0 40 5 40 10 0 6 9 10 21 10 19 0 21 -5 17 -45 -3 -38 0 -46 16
-51 11 -4 22 -2 24 5 8 24 22 9 22 -24 0 -55 50 -125 88 -125 11 0 25 -7 32
-15 8 -9 30 -15 56 -15 40 0 44 -2 44 -25 0 -14 5 -25 11 -25 7 0 23 -12 36
-27 19 -20 27 -23 33 -13 6 10 14 7 33 -13 25 -27 64 -38 52 -15 -4 7 6 -1 22
-18 15 -17 37 -36 48 -41 24 -12 47 -6 39 10 -3 7 5 0 18 -16 19 -21 32 -27
66 -27 23 0 42 -4 42 -10 0 -5 18 -10 40 -10 23 0 40 -5 40 -11 0 -8 24 -9 80
-4 70 6 80 5 80 -9 0 -12 10 -16 40 -16 22 0 40 -4 40 -10 0 -5 -5 -10 -11
-10 -8 0 -7 -5 2 -16 9 -11 15 -12 17 -4 2 6 15 23 28 37 21 23 32 26 74 24
30 -1 50 2 50 9 0 5 18 10 40 10 22 0 40 5 40 10 0 6 27 10 62 10 43 0 67 5
80 17 17 15 18 15 18 0 0 -10 5 -17 11 -17 14 0 75 61 72 72 -2 4 15 8 37 8
22 0 40 -4 40 -10 0 -5 18 -10 40 -10 34 0 40 3 40 21 0 21 50 79 69 79 6 0
11 -13 11 -29 0 -24 3 -28 20 -24 31 8 34 22 9 42 l-23 18 30 14 c28 14 40 47
21 60 -11 8 0 29 14 29 5 0 9 -7 9 -15 0 -20 27 -19 38 1 5 9 22 18 38 20 16
1 34 10 39 20 6 9 18 26 28 36 9 10 17 23 17 28 0 6 10 10 21 10 16 0 20 5 16
20 -6 25 12 49 42 55 31 6 46 28 24 36 -12 4 -9 12 19 42 l35 36 13 -24 c27
-50 42 -26 44 67 1 39 6 63 14 65 6 3 12 -2 12 -11 0 -9 4 -16 9 -16 8 0 17
48 24 133 1 21 7 27 25 27 18 0 22 6 22 30 0 28 2 30 40 30 22 0 40 5 40 10 0
6 -7 10 -16 10 -23 0 -44 25 -44 54 0 23 4 26 35 26 34 0 35 1 35 40 0 22 5
40 10 40 6 0 10 33 10 80 0 64 -3 80 -15 80 -8 0 -15 9 -15 20 0 11 -3 20 -8
20 -4 0 -15 18 -25 40 -13 31 -22 40 -42 40 -14 0 -25 3 -25 6 0 13 30 34 49
34 18 0 21 6 21 39 0 33 -4 40 -22 43 -21 3 -21 5 12 38 l34 35 -27 3 c-24 3
-27 7 -27 42 0 35 3 39 27 42 l27 3 -30 31 c-26 26 -29 36 -26 76 3 34 9 48
20 50 14 3 13 7 -8 28 -22 22 -25 23 -28 7 -3 -13 -13 -17 -43 -17 -21 0 -39
-4 -39 -10 0 -5 9 -10 20 -10 17 0 20 -7 20 -44 0 -38 -3 -43 -19 -39 -20 5
-31 70 -31 184 0 51 3 59 19 59 21 0 35 15 45 46 9 31 -22 65 -61 66 -31 1
-32 2 -35 52 -2 41 -7 53 -26 62 -12 6 -26 15 -30 19 -4 5 -1 5 6 1 7 -4 12
-1 12 8 0 10 -9 16 -21 16 -14 0 -19 -5 -16 -14 3 -7 -5 -23 -19 -35 -13 -11
-24 -30 -24 -42 0 -16 -4 -20 -17 -15 -17 6 -17 5 0 -8 26 -20 22 -46 -7 -46
-13 0 -33 -3 -43 -7 -17 -6 -17 -6 -1 10 9 9 27 18 40 18 18 1 19 2 5 6 -13 3
-17 11 -13 25 9 35 -5 76 -28 83 -13 4 -16 8 -8 12 6 2 12 18 12 34 0 29 -1
29 -56 29 -30 0 -53 -3 -50 -8 2 -4 -13 -7 -34 -7 -37 0 -38 0 -38 40 -1 94
-1 95 -22 95 -11 0 -20 -5 -20 -10 0 -6 -12 -9 -27 -7 -22 3 -29 10 -31 30 -3
24 -7 27 -43 27 -39 0 -39 0 -39 40 0 22 5 40 10 40 6 0 10 5 10 10 0 6 -18
10 -40 10 -22 0 -40 -4 -40 -10 0 -5 -4 -10 -10 -10 -5 0 -10 18 -10 39 0 22
5 43 10 46 18 11 11 37 -7 31 -10 -2 -38 -7 -63 -11 -38 -5 -42 -4 -25 6 11 7
21 11 21 8 1 -2 11 4 23 15 14 13 28 16 47 12 25 -7 26 -6 13 10 -9 11 -9 15
-1 10 7 -4 12 -2 12 4 0 6 4 9 9 6 5 -3 20 3 33 14 14 11 28 16 32 13 4 -4 18
5 32 20 14 15 44 40 67 55 23 15 49 34 58 42 203 180 341 385 413 615 51 163
58 210 53 407 -4 189 -15 264 -57 388 -27 79 -111 249 -145 294 -14 18 -25 38
-25 44 0 6 -3 12 -7 14 -5 2 -21 19 -36 38 -187 230 -411 370 -717 451 -100
26 -379 35 -495 14z m785 -485 c9 0 34 -16 55 -35 32 -28 39 -42 43 -84 8 -87
-50 -151 -138 -151 -69 0 -130 47 -130 99 0 20 -20 29 -100 45 -14 3 -56 12
-94 21 -38 9 -72 13 -76 8 -8 -8 -30 -99 -55 -230 -8 -40 -18 -88 -23 -107
l-10 -35 46 -6 c146 -18 321 -75 419 -136 18 -10 29 -9 71 9 91 39 181 20 234
-50 64 -84 54 -196 -23 -261 -37 -32 -39 -37 -39 -91 0 -265 -306 -493 -690
-513 -285 -14 -546 75 -693 238 -79 86 -109 154 -115 257 -2 45 -7 82 -11 82
-15 0 -60 48 -80 85 -50 95 -5 218 96 261 42 18 121 18 153 -1 14 -8 31 -17
39 -21 9 -5 41 7 80 28 108 59 222 94 381 116 l54 7 12 55 c6 30 19 91 28 135
41 196 59 264 72 269 8 3 58 -4 112 -15 224 -46 209 -45 236 -20 27 26 94 52
114 46 8 -3 22 -5 32 -5z m-210 -2035 c0 -8 -9 -15 -20 -15 -11 0 -20 -5 -20
-12 0 -6 -3 -9 -6 -5 -3 3 -3 15 1 26 7 24 45 29 45 6z m-114 -19 c21 -21 17
-46 -6 -46 -11 0 -20 5 -20 10 0 6 5 10 10 10 6 0 10 5 10 10 0 6 -9 10 -21
10 -11 0 -17 5 -14 10 9 14 24 12 41 -4z m-72 -4 c-6 -4 -13 -12 -15 -19 -3
-9 -9 -9 -19 -3 -13 9 -13 11 0 20 8 5 22 10 30 10 10 0 11 -3 4 -8z m-191
-39 c-13 -2 -33 -2 -45 0 -13 2 -3 4 22 4 25 0 35 -2 23 -4z m614 -169 c-3 -3
-12 -4 -19 -1 -8 3 -5 6 6 6 11 1 17 -2 13 -5z m122 -21 c-1 -22 -2 -23 -6 -8
-3 11 -10 23 -17 27 -7 5 -5 8 7 8 12 0 17 -7 16 -27z m-82 11 c-3 -3 -12 -4
-19 -1 -8 3 -5 6 6 6 11 1 17 -2 13 -5z m71 -79 c-1 -27 -1 -28 -5 -5 -3 14
-8 30 -12 35 -5 6 -11 19 -15 30 -5 16 -2 15 14 -5 11 -14 19 -38 18 -55z
m-628 55 c0 -5 -9 -10 -20 -10 -11 0 -29 -9 -40 -20 -12 -12 -20 -15 -20 -7 0
13 47 46 68 47 6 0 12 -4 12 -10z m583 -21 c9 -12 17 -26 16 -33 0 -6 -5 -1
-11 11 -11 24 -42 38 -70 34 -9 -1 -20 3 -24 10 -13 22 69 1 89 -22z m-518
-54 c0 -24 -3 -47 -7 -51 -5 -4 -8 12 -8 35 0 23 -5 51 -11 62 -9 18 -8 19 8
9 13 -9 18 -24 18 -55z m362 13 c-3 -8 -6 -5 -6 6 -1 11 2 17 5 13 3 -3 4 -12
1 -19z m39 -109 c0 -87 -2 -96 -18 -91 -10 2 -21 8 -24 13 -3 5 -15 10 -27 10
-16 1 -17 3 -5 6 9 2 26 0 36 -6 19 -10 20 -6 24 67 3 42 1 81 -4 87 -4 5 -8
15 -8 23 0 11 2 11 14 0 9 -10 13 -41 12 -109z m417 101 c-7 -26 -22 -35 -35
-22 -15 15 -2 42 21 42 14 0 18 -5 14 -20z m-273 -37 c0 -5 -5 -15 -10 -23 -8
-12 -10 -11 -10 8 0 12 5 22 10 22 6 0 10 -3 10 -7z m30 3 c0 -2 -7 -9 -15
-16 -13 -11 -14 -10 -9 4 5 14 24 23 24 12z m-577 -425 c-3 -228 -6 -261 -26
-261 -8 0 -8 3 1 12 9 9 12 97 14 327 1 197 4 284 8 231 3 -47 5 -186 3 -309z
m-975 342 c2 -7 -7 -22 -19 -34 l-23 -23 -9 21 c-7 16 -17 21 -43 18 -19 -1
-34 2 -34 7 0 5 21 8 47 7 31 -2 48 1 51 9 5 15 24 11 30 -5z m-145 -20 c-7
-2 -19 -2 -25 0 -7 3 -2 5 12 5 14 0 19 -2 13 -5z m297 -3 c-14 -4 -38 -8 -55
-8 -29 1 -29 1 5 8 50 11 83 11 50 0z m1644 -6 c3 -8 2 -12 -4 -9 -6 3 -10 10
-10 16 0 14 7 11 14 -7z m-1074 2 c0 -3 -4 -8 -10 -11 -5 -3 -10 -1 -10 4 0 6
5 11 10 11 6 0 10 -2 10 -4z m630 -6 c0 -5 -7 -7 -15 -4 -8 4 -15 8 -15 10 0
2 7 4 15 4 8 0 15 -4 15 -10z m-1105 -15 c24 -12 25 -14 5 -8 -14 3 -41 10
-60 14 -34 7 -34 7 -5 7 17 1 44 -5 60 -13z m416 -3 c-13 -2 -42 -15 -63 -29
-21 -14 -41 -23 -44 -20 -3 3 4 8 15 12 12 3 21 11 21 16 0 5 7 9 15 9 9 0 18
6 21 14 3 8 14 11 32 7 27 -5 27 -5 3 -9z m609 8 c0 -5 -15 -10 -34 -10 -36 0
-117 -25 -126 -39 -3 -5 -14 -5 -25 0 -19 7 -19 8 3 8 12 1 22 6 22 11 0 6 7
10 15 10 8 0 15 4 15 9 0 5 8 7 18 5 9 -3 28 -1 42 5 33 13 70 14 70 1z
m-1135 -10 c-3 -5 -10 -10 -16 -10 -5 0 -9 5 -9 10 0 6 7 10 16 10 8 0 12 -4
9 -10z m660 0 c3 -6 -1 -7 -9 -4 -18 7 -21 14 -7 14 6 0 13 -4 16 -10z m-715
-10 c0 -5 -5 -10 -11 -10 -5 0 -7 5 -4 10 3 6 8 10 11 10 2 0 4 -4 4 -10z
m-340 -24 c0 -11 -19 -15 -25 -6 -3 5 1 10 9 10 9 0 16 -2 16 -4z m2041 -15
c-6 -10 -7 -21 -4 -25 3 -3 2 -6 -4 -6 -20 0 -23 14 -6 32 21 23 26 23 14 -1z
m-1741 5 c0 -3 -4 -8 -10 -11 -5 -3 -10 -1 -10 4 0 6 5 11 10 11 6 0 10 -2 10
-4z m1573 -43 c-3 -18 -9 -33 -13 -33 -7 0 -5 24 6 59 8 24 12 7 7 -26z
m-1608 8 c-3 -6 -11 -11 -17 -11 -6 0 -6 6 2 15 14 17 26 13 15 -4z m1735 -14
c0 -5 -4 -5 -10 -2 -5 3 -10 14 -10 23 0 15 2 15 10 2 5 -8 10 -19 10 -23z
m-1795 -16 c-3 -6 -11 -11 -16 -11 -5 0 -4 6 3 14 14 16 24 13 13 -3z m569 4
c-4 -8 -10 -15 -15 -15 -4 0 -6 7 -3 15 4 8 10 15 15 15 4 0 6 -7 3 -15z m-84
-54 c0 -9 -7 -3 -15 13 -19 36 -19 47 0 22 8 -11 15 -27 15 -35z m317 33 c-3
-3 -12 -4 -19 -1 -8 3 -5 6 6 6 11 1 17 -2 13 -5z m267 -44 c-19 -56 -29 -66
-19 -20 7 32 26 72 32 67 1 -2 -5 -23 -13 -47z m723 -12 c-2 -13 -4 -3 -4 22
0 25 2 35 4 23 2 -13 2 -33 0 -45z m133 10 c-1 -49 -2 -51 -15 -34 -8 11 -15
32 -15 47 0 15 -6 30 -12 32 -7 3 -1 6 15 6 26 1 27 -1 27 -51z m140 -148 c0
-127 -4 -200 -10 -200 -6 0 -10 73 -10 200 0 127 4 200 10 200 6 0 10 -73 10
-200z m-2190 170 c-8 -5 -17 -7 -19 -4 -3 3 1 9 9 14 8 5 17 7 19 4 3 -3 -1
-9 -9 -14z m40 10 c0 -5 -4 -10 -10 -10 -5 0 -10 5 -10 10 0 6 5 10 10 10 6 0
10 -4 10 -10z m619 -26 c-9 -17 -14 -57 -14 -110 0 -47 -4 -85 -10 -88 -16 -6
-8 144 11 192 9 24 19 41 22 38 3 -3 -1 -18 -9 -32z m181 21 c-9 -10 -9 -15
-1 -15 6 0 11 -4 11 -10 0 -5 -7 -7 -15 -3 -9 3 -22 -2 -30 -13 -8 -11 -15
-14 -15 -9 0 6 11 23 25 38 27 28 47 38 25 12z m937 -7 c-3 -8 -6 -5 -6 6 -1
11 2 17 5 13 3 -3 4 -12 1 -19z m-1650 -10 c-3 -8 -6 -5 -6 6 -1 11 2 17 5 13
3 -3 4 -12 1 -19z m314 12 c10 -6 19 -16 19 -23 0 -9 -2 -9 -8 0 -4 7 -19 16
-32 22 -14 5 -19 10 -12 10 7 1 22 -4 33 -9z m199 6 c0 -3 -4 -8 -10 -11 -5
-3 -10 -1 -10 4 0 6 5 11 10 11 6 0 10 -2 10 -4z m338 -8 c20 -20 13 -32 -7
-14 -11 10 -25 15 -30 11 -6 -3 -11 -1 -11 4 0 15 33 14 48 -1z m422 2 c8 -5
11 -12 7 -17 -5 -4 -12 -1 -18 7 -8 13 -11 13 -23 -2 -18 -24 -29 -23 -16 2
12 22 27 25 50 10z m-1451 -41 c-13 -10 -20 -21 -16 -26 5 -4 12 -1 17 7 6 8
10 12 10 8 0 -3 3 -13 6 -21 4 -11 -1 -13 -20 -10 -19 4 -26 1 -26 -11 0 -9 4
-16 8 -16 5 0 9 -24 9 -52 l0 -53 -6 45 c-5 39 -6 32 -12 -45 l-6 -90 0 115
c0 114 5 138 36 173 11 13 17 15 20 6 2 -6 -7 -20 -20 -30z m436 -7 c-3 -3
-11 0 -18 7 -9 10 -8 11 6 5 10 -3 15 -9 12 -12z m232 -4 c-3 -8 -6 -5 -6 6
-1 11 2 17 5 13 3 -3 4 -12 1 -19z m933 -8 c0 -11 -2 -20 -4 -20 -2 0 -6 9 -9
20 -3 11 -1 20 4 20 5 0 9 -9 9 -20z m-1460 0 c0 -5 -2 -10 -4 -10 -3 0 -8 5
-11 10 -3 6 -1 10 4 10 6 0 11 -4 11 -10z m17 -77 c-2 -16 -4 -3 -4 27 0 30 2
43 4 28 2 -16 2 -40 0 -55z m-50 35 c-3 -8 -6 -5 -6 6 -1 11 2 17 5 13 3 -3 4
-12 1 -19z m1265 -3 c3 -15 1 -22 -5 -18 -6 4 -8 -8 -4 -33 5 -27 4 -33 -3
-19 -15 33 -11 95 6 95 1 0 4 -11 6 -25z m-542 -5 c9 -16 8 -20 -5 -20 -8 0
-15 9 -15 20 0 11 2 20 5 20 2 0 9 -9 15 -20z m397 -12 c-3 -7 -5 -2 -5 12 0
14 2 19 5 13 2 -7 2 -19 0 -25z m-1220 0 c-3 -8 -6 -5 -6 6 -1 11 2 17 5 13 3
-3 4 -12 1 -19z m1613 12 c0 -5 -6 -10 -12 -10 -9 0 -8 -4 2 -10 13 -9 13 -11
0 -20 -22 -15 -25 -13 -26 20 -1 23 3 30 17 30 11 0 19 -4 19 -10z m355 -121
c-6 -133 -15 -122 -14 17 0 81 3 112 9 97 5 -13 7 -64 5 -114z m-405 90 c0 -6
-4 -7 -10 -4 -5 3 -10 11 -10 16 0 6 5 7 10 4 6 -3 10 -11 10 -16z m770 -39
c0 -65 -17 -65 -22 0 -2 35 1 50 10 50 8 0 12 -17 12 -50z m-1510 30 c0 -5 -4
-10 -10 -10 -5 0 -10 5 -10 10 0 6 5 10 10 10 6 0 10 -4 10 -10z m-1023 -122
c-2 -24 -4 -5 -4 42 0 47 2 66 4 43 2 -24 2 -62 0 -85z m1763 82 c0 -11 -4
-22 -10 -25 -5 -3 -10 0 -10 9 0 8 -3 22 -6 30 -5 12 -2 15 10 10 9 -3 16 -14
16 -24z m50 20 c0 -5 -4 -10 -10 -10 -5 0 -10 5 -10 10 0 6 5 10 10 10 6 0 10
-4 10 -10z m-1304 -32 c20 -39 36 -51 46 -35 4 7 8 8 8 2 0 -14 -18 -40 -23
-35 -14 15 -57 84 -57 91 0 17 10 8 26 -23z m511 0 c-3 -7 -5 -2 -5 12 0 14 2
19 5 13 2 -7 2 -19 0 -25z m-424 15 c-13 -2 -33 -2 -45 0 -13 2 -3 4 22 4 25
0 35 -2 23 -4z m846 -72 c2 -31 -18 6 -23 44 l-6 40 14 -35 c8 -19 15 -42 15
-49z m286 50 c-3 -6 -14 -10 -23 -10 -15 1 -15 2 1 6 9 2 17 9 17 15 0 6 3 9
6 5 3 -3 3 -10 -1 -16z m45 -31 c-12 -16 -30 -30 -40 -30 -10 0 -20 -5 -22
-11 -2 -7 -10 -10 -18 -7 -19 6 22 43 48 43 9 0 23 13 31 30 8 16 16 24 18 18
3 -7 -5 -26 -17 -43z m-1015 20 c-3 -5 -12 -10 -19 -10 -8 0 -19 -7 -26 -16
-17 -20 -80 -46 -100 -41 -9 3 -7 5 7 6 12 0 25 6 28 11 3 6 15 10 27 10 15 0
18 4 14 17 -4 10 -4 15 -1 11 4 -3 18 0 33 8 32 16 46 18 37 4z m495 1 c0 -14
-46 -51 -64 -51 -19 0 -19 1 4 13 14 7 25 20 24 28 -1 8 7 15 17 15 11 0 19
-2 19 -5z m353 -29 c5 -7 12 -10 17 -7 6 3 20 -3 32 -14 21 -20 21 -21 2 -21
-21 0 -48 21 -79 60 -20 25 -20 25 0 10 11 -8 24 -21 28 -28z m324 6 c-3 -7
-5 -2 -5 12 0 14 2 19 5 13 2 -7 2 -19 0 -25z m-1317 12 c0 -5 -2 -10 -4 -10
-3 0 -8 5 -11 10 -3 6 -1 10 4 10 6 0 11 -4 11 -10z m435 0 c3 -5 1 -10 -4
-10 -6 0 -11 5 -11 10 0 6 2 10 4 10 3 0 8 -4 11 -10z m155 0 c0 -5 -4 -10
-10 -10 -5 0 -10 5 -10 10 0 6 5 10 10 10 6 0 10 -4 10 -10z m-540 -14 c0 -2
-7 -6 -15 -10 -8 -3 -15 -1 -15 4 0 6 7 10 15 10 8 0 15 -2 15 -4z m1357 -28
c-3 -7 -5 -2 -5 12 0 14 2 19 5 13 2 -7 2 -19 0 -25z m-1412 12 c3 -6 -1 -7
-9 -4 -18 7 -21 14 -7 14 6 0 13 -4 16 -10z m475 0 c0 -5 -4 -10 -9 -10 -6 0
-13 5 -16 10 -3 6 1 10 9 10 9 0 16 -4 16 -10z m-165 -20 c3 -5 1 -10 -4 -10
-6 0 -11 5 -11 10 0 6 2 10 4 10 3 0 8 -4 11 -10z m1615 -5 c0 -8 -4 -15 -10
-15 -5 0 -10 7 -10 15 0 8 5 15 10 15 6 0 10 -7 10 -15z m-2083 -72 c12 -9 13
-13 3 -13 -17 0 -70 59 -70 79 0 8 11 0 25 -20 14 -19 33 -40 42 -46z m393 62
c-7 -9 -15 -13 -19 -10 -3 3 1 10 9 15 21 14 24 12 10 -5z m313 8 c-13 -2 -33
-2 -45 0 -13 2 -3 4 22 4 25 0 35 -2 23 -4z m311 -9 c10 -25 -1 -29 -14 -5 -6
12 -7 21 -1 21 5 0 12 -7 15 -16z m1040 0 c3 -9 6 -24 6 -35 0 -10 5 -19 10
-19 6 0 10 -4 10 -10 0 -5 -11 -10 -24 -10 -20 0 -25 6 -28 34 -2 19 -2 39 0
45 5 16 19 14 26 -5z m-57 -61 c-3 -10 -5 -2 -5 17 0 19 2 27 5 18 2 -10 2
-26 0 -35z m-2267 18 c0 -4 -7 -8 -15 -8 -8 0 -15 6 -15 13 0 8 6 11 15 8 8
-4 15 -9 15 -13z m637 -3 c-3 -8 -6 -5 -6 6 -1 11 2 17 5 13 3 -3 4 -12 1 -19z
m-423 -28 c-6 -5 -24 21 -24 34 0 6 6 1 14 -10 8 -10 12 -21 10 -24z m1763 8
c-3 -8 -6 -5 -6 6 -1 11 2 17 5 13 3 -3 4 -12 1 -19z m-1366 -16 c-6 -2 -9 -8
-6 -13 4 -5 -4 -8 -17 -8 -13 1 -32 -2 -42 -6 -14 -6 -17 -5 -12 3 4 7 12 12
18 12 5 0 22 9 36 21 19 15 28 17 31 8 2 -7 -1 -15 -8 -17z m489 -12 c27 -27
25 -34 -3 -15 -13 8 -27 12 -31 8 -4 -4 -4 0 0 10 8 21 10 21 34 -3z m533 6
c4 -10 1 -13 -7 -10 -8 3 -17 1 -21 -5 -3 -6 -12 -11 -18 -11 -7 0 -1 9 13 20
30 24 27 23 33 6z m-1303 -24 c-7 -3 -19 3 -28 13 -16 15 -15 16 12 4 15 -7
23 -15 16 -17z m515 18 c3 -5 1 -10 -4 -10 -6 0 -11 5 -11 10 0 6 2 10 4 10 3
0 8 -4 11 -10z m885 -10 c-24 -15 -36 -11 -14 4 10 8 21 12 24 10 2 -3 -2 -9
-10 -14z m-330 0 c0 -5 -7 -7 -15 -4 -8 4 -15 8 -15 10 0 2 7 4 15 4 8 0 15
-4 15 -10z m475 0 c3 -6 -1 -7 -9 -4 -18 7 -21 14 -7 14 6 0 13 -4 16 -10z
m355 6 c0 -3 -4 -8 -10 -11 -5 -3 -10 -1 -10 4 0 6 5 11 10 11 6 0 10 -2 10
-4z m108 -8 c17 -17 15 -48 -2 -48 -14 0 -46 36 -46 52 0 12 35 9 48 -4z
m-1168 -8 c0 -5 -10 -10 -22 -9 -22 0 -22 1 -3 9 11 5 21 9 23 9 1 1 2 -3 2
-9z m780 6 c0 -2 -7 -7 -16 -10 -8 -3 -12 -2 -9 4 6 10 25 14 25 6z m-1430
-21 c11 -13 8 -15 -16 -14 -20 1 -23 3 -10 6 15 4 16 7 5 14 -8 5 -9 9 -3 9 6
0 17 -7 24 -15z m927 9 c-3 -3 -12 -4 -19 -1 -8 3 -5 6 6 6 11 1 17 -2 13 -5z
m737 -1 c-5 -5 -12 -12 -16 -18 -4 -6 -8 -2 -8 8 0 9 7 17 17 17 9 0 12 -3 7
-7z m-2334 -13 c0 -5 -2 -10 -4 -10 -3 0 -8 5 -11 10 -3 6 -1 10 4 10 6 0 11
-4 11 -10z m460 0 c0 -5 -4 -10 -10 -10 -5 0 -10 5 -10 10 0 6 5 10 10 10 6 0
10 -4 10 -10z m800 -4 c0 -3 -4 -8 -10 -11 -5 -3 -10 -1 -10 4 0 6 5 11 10 11
6 0 10 -2 10 -4z m750 0 c0 -11 -19 -15 -25 -6 -3 5 1 10 9 10 9 0 16 -2 16
-4z m380 -6 c0 -5 -4 -10 -10 -10 -5 0 -10 5 -10 10 0 6 5 10 10 10 6 0 10 -4
10 -10z m90 -174 c0 -11 -19 -15 -25 -6 -3 5 1 10 9 10 9 0 16 -2 16 -4z m58
-123 c-2 -17 -10 -29 -20 -31 -14 -3 -18 3 -18 27 0 25 4 31 21 31 16 0 20 -5
17 -27z m42 17 c0 -5 -4 -10 -10 -10 -5 0 -10 5 -10 10 0 6 5 10 10 10 6 0 10
-4 10 -10z m-212 -462 c-6 -18 -28 -21 -28 -4 0 9 7 16 16 16 9 0 14 -5 12
-12z m-2228 -72 c0 -2 -11 -11 -25 -20 -23 -15 -25 -15 -35 4 -10 18 -8 20 25
20 19 0 35 -2 35 -4z m1863 -3 c-13 -2 -33 -2 -45 0 -13 2 -3 4 22 4 25 0 35
-2 23 -4z m-1643 -343 c0 -16 -4 -30 -10 -30 -5 0 -10 14 -10 30 0 17 5 30 10
30 6 0 10 -13 10 -30z m217 -122 c-3 -7 -5 -2 -5 12 0 14 2 19 5 13 2 -7 2
-19 0 -25z"/>
<path d="M6039 4089 c-60 -35 -76 -111 -36 -170 39 -58 98 -74 158 -44 86 45
91 168 8 214 -46 26 -84 26 -130 0z"/>
<path d="M6635 4096 c-87 -38 -94 -166 -12 -216 57 -35 119 -23 170 33 27 31
23 115 -6 149 -40 47 -95 59 -152 34z"/>
<path d="M6093 3683 c-19 -7 -16 -37 5 -56 10 -9 44 -29 77 -44 57 -26 67 -28
210 -28 171 0 240 16 304 72 34 30 35 32 19 49 -17 17 -19 17 -45 -2 -46 -34
-75 -47 -138 -60 -145 -32 -302 -8 -400 60 -11 8 -26 12 -32 9z"/>
<path d="M5680 2960 c0 -6 7 -10 15 -10 8 0 15 2 15 4 0 2 -7 6 -15 10 -8 3
-15 1 -15 -4z"/>
<path d="M7120 2940 c0 -5 18 -10 40 -10 22 0 40 5 40 10 0 6 -18 10 -40 10
-22 0 -40 -4 -40 -10z"/>
<path d="M5864 2911 c3 -5 15 -11 26 -14 17 -4 19 -3 9 9 -12 15 -44 20 -35 5z"/>
<path d="M7000 2905 c0 -8 -7 -15 -15 -15 -8 0 -15 -4 -15 -10 0 -15 19 -12
36 4 16 17 19 36 4 36 -5 0 -10 -7 -10 -15z"/>
<path d="M7230 2885 c0 -8 5 -15 10 -15 6 0 10 7 10 15 0 8 -4 15 -10 15 -5 0
-10 -7 -10 -15z"/>
<path d="M5520 2769 c0 -11 5 -17 10 -14 6 3 10 13 10 21 0 8 -4 14 -10 14 -5
0 -10 -9 -10 -21z"/>
<path d="M5585 2737 c-4 -10 -5 -21 -1 -24 10 -10 18 4 13 24 -4 17 -4 17 -12
0z"/>
<path d="M7280 2717 c0 -29 3 -35 15 -31 11 4 13 13 9 28 -12 39 -24 41 -24 3z"/>
<path d="M5360 2720 c0 -5 5 -10 11 -10 5 0 7 5 4 10 -3 6 -8 10 -11 10 -2 0
-4 -4 -4 -10z"/>
<path d="M7178 2693 c7 -3 16 -2 19 1 4 3 -2 6 -13 5 -11 0 -14 -3 -6 -6z"/>
<path d="M7280 2620 c0 -28 2 -30 40 -30 38 0 40 2 40 30 0 28 -2 30 -40 30
-38 0 -40 -2 -40 -30z"/>
<path d="M7440 2620 c0 -13 20 -13 40 0 12 8 9 10 -12 10 -16 0 -28 -4 -28
-10z"/>
<path d="M7396 2551 c-4 -5 3 -7 14 -4 23 6 26 13 6 13 -8 0 -17 -4 -20 -9z"/>
<path d="M5265 2490 c-12 -19 -6 -93 8 -102 22 -14 27 -8 27 37 0 25 -4 45 -9
45 -5 0 -11 8 -13 18 -3 14 -5 15 -13 2z"/>
<path d="M7563 2445 c7 -14 19 -25 27 -25 9 0 11 3 4 8 -6 4 -13 15 -17 25 -3
9 -11 17 -16 17 -5 0 -4 -11 2 -25z"/>
<path d="M4868 2353 c7 -3 16 -2 19 1 4 3 -2 6 -13 5 -11 0 -14 -3 -6 -6z"/>
<path d="M7650 2350 c0 -5 5 -10 10 -10 6 0 10 5 10 10 0 6 -4 10 -10 10 -5 0
-10 -4 -10 -10z"/>
<path d="M4950 2339 c0 -5 5 -7 10 -4 6 3 10 8 10 11 0 2 -4 4 -10 4 -5 0 -10
-5 -10 -11z"/>
<path d="M5071 2264 c0 -11 3 -14 6 -6 3 7 2 16 -1 19 -3 4 -6 -2 -5 -13z"/>
<path d="M5086 2235 c-3 -9 -5 -29 -5 -43 1 -20 3 -17 9 13 8 43 7 57 -4 30z"/>
<path d="M4870 2170 c0 -5 5 -10 11 -10 5 0 7 5 4 10 -3 6 -8 10 -11 10 -2 0
-4 -4 -4 -10z"/>
<path d="M4963 2153 c5 -6 5 -18 1 -24 -4 -7 -3 -9 3 -6 12 7 23 -15 22 -41 0
-14 -2 -13 -8 2 -7 19 -8 19 -13 -2 -4 -12 -3 -20 2 -17 4 3 13 -1 19 -8 8
-11 -1 -12 -48 -9 -32 2 -61 0 -64 -4 -3 -5 26 -9 64 -9 50 -1 69 3 69 12 0 7
-4 13 -8 13 -5 0 -7 12 -5 28 3 18 -4 35 -19 52 -13 14 -19 20 -15 13z"/>
<path d="M5091 2129 c0 -13 4 -33 9 -44 7 -14 8 -8 3 20 -7 46 -13 59 -12 24z"/>
<path d="M4938 2023 c6 -2 18 -2 25 0 6 3 1 5 -13 5 -14 0 -19 -2 -12 -5z"/>
<path d="M5107 1973 c-10 -9 -8 -43 2 -43 5 0 9 11 9 25 0 27 -1 28 -11 18z"/>
<path d="M5003 1943 c-8 -3 -12 -20 -12 -41 l2 -37 6 35 7 35 6 -45 c5 -30 3
-47 -5 -52 -14 -9 -5 -10 17 -2 9 3 13 11 9 18 -4 6 -10 29 -13 52 -3 27 -9
39 -17 37z"/>
<path d="M4838 1933 c6 -2 18 -2 25 0 6 3 1 5 -13 5 -14 0 -19 -2 -12 -5z"/>
<path d="M4923 1923 c9 -2 23 -2 30 0 6 3 -1 5 -18 5 -16 0 -22 -2 -12 -5z"/>
<path d="M4980 1656 c0 -8 5 -18 10 -21 6 -3 10 1 10 9 0 8 -4 18 -10 21 -5 3
-10 -1 -10 -9z"/>
<path d="M4951 1644 c0 -11 3 -14 6 -6 3 7 2 16 -1 19 -3 4 -6 -2 -5 -13z"/>
<path d="M5020 1626 c0 -14 4 -27 8 -30 5 -3 6 8 4 25 -5 35 -12 38 -12 5z"/>
<path d="M5002 1600 c0 -14 2 -19 5 -12 2 6 2 18 0 25 -3 6 -5 1 -5 -13z"/>
<path d="M4985 1580 c2 -14 5 -31 5 -38 0 -21 22 -9 31 17 6 14 5 20 -1 16 -6
-3 -10 -14 -11 -23 0 -9 -7 -1 -15 18 -9 22 -12 26 -9 10z"/>
<path d="M4901 1489 c-1 -9 7 -23 17 -30 15 -12 16 -12 6 1 -6 8 -14 22 -17
30 -5 13 -6 12 -6 -1z"/>
<path d="M4880 1450 c0 -5 5 -10 11 -10 5 0 7 5 4 10 -3 6 -8 10 -11 10 -2 0
-4 -4 -4 -10z"/>
<path d="M5130 1090 c0 -11 7 -20 15 -20 8 0 15 -4 15 -10 0 -5 5 -10 10 -10
16 0 11 32 -7 46 -25 19 -33 17 -33 -6z"/>
<path d="M5200 850 c0 -13 5 -18 15 -14 12 5 13 10 4 20 -15 19 -19 18 -19 -6z"/>
<path d="M5261 824 c0 -11 3 -14 6 -6 3 7 2 16 -1 19 -3 4 -6 -2 -5 -13z"/>
<path d="M5345 700 c3 -5 8 -10 11 -10 2 0 4 5 4 10 0 6 -5 10 -11 10 -5 0 -7
-4 -4 -10z"/>
<path d="M7280 539 c0 -5 5 -7 10 -4 6 3 10 8 10 11 0 2 -4 4 -10 4 -5 0 -10
-5 -10 -11z"/>
<path d="M6720 279 c0 -12 5 -19 12 -17 18 6 20 25 3 31 -10 5 -15 0 -15 -14z"/>
</g>
</svg>
