<?xml version="1.0" standalone="no"?>
<!DOCTYPE svg PUBLIC "-//W3C//DTD SVG 20010904//EN"
 "http://www.w3.org/TR/2001/REC-SVG-20010904/DTD/svg10.dtd">
<svg version="1.0" xmlns="http://www.w3.org/2000/svg"
 width="400.000000pt" height="400.000000pt" viewBox="0 0 400.000000 400.000000"
 preserveAspectRatio="xMidYMid meet">

<g transform="translate(0.000000,400.000000) scale(0.100000,-0.100000)"
fill="#000000" stroke="none">
<path d="M0 2000 l0 -2000 319 0 320 0 4 28 4 27 2 -28 1 -27 1675 0 1675 0 0
2000 0 2000 -2000 0 -2000 0 0 -2000z m1808 1094 c4 -4 -1 -4 -10 -1 -10 3
-20 1 -24 -5 -4 -7 -9 -6 -15 3 -6 10 -9 11 -9 2 0 -7 -7 -13 -16 -13 -8 0
-13 4 -10 9 4 5 0 11 -6 14 -7 2 9 3 35 2 27 -2 51 -6 55 -11z m479 -10 c-3
-3 -12 -4 -19 -1 -8 3 -5 6 6 6 11 1 17 -2 13 -5z m-737 -53 c0 -5 -7 -11 -14
-14 -10 -4 -13 -1 -9 9 6 15 23 19 23 5z m57 1 c10 8 17 8 26 -1 9 -10 8 -11
-7 -5 -13 5 -17 4 -13 -3 4 -6 1 -13 -6 -16 -8 -3 -19 5 -26 16 -11 18 -11 20
0 10 9 -9 16 -10 26 -1z m787 0 c2 -4 -4 -8 -14 -8 -10 0 -16 4 -14 8 3 4 9 8
14 8 5 0 11 -4 14 -8z m30 -7 c-4 -8 -8 -15 -10 -15 -2 0 -4 7 -4 15 0 8 4 15
10 15 5 0 7 -7 4 -15z m31 -23 c-3 -3 -11 0 -18 7 -9 10 -8 11 6 5 10 -3 15
-9 12 -12z m-905 -1 c0 -5 -7 -12 -16 -15 -14 -5 -15 -4 -4 9 14 17 20 19 20
6z m-13 -38 c-17 -17 -60 -26 -51 -11 4 5 12 7 19 4 8 -3 19 2 25 10 7 8 15
14 18 14 4 0 -1 -8 -11 -17z m973 -3 c0 -4 -6 -10 -14 -13 -12 -5 -14 2 -7 31
2 7 21 -10 21 -18z m-1050 -15 c-6 -8 -8 -20 -4 -27 5 -10 4 -10 -6 -1 -11 10
-11 15 0 28 7 8 15 15 17 15 3 0 0 -7 -7 -15z m1081 -33 c8 2 14 -6 14 -17 1
-11 6 -19 13 -17 14 2 16 -4 4 -12 -5 -3 -24 11 -43 31 -19 21 -27 32 -18 25
9 -7 23 -11 30 -10z m-1104 -47 c5 -4 2 -4 -6 0 -11 6 -13 4 -8 -8 4 -12 2
-14 -10 -10 -12 5 -15 2 -10 -10 9 -24 0 -21 -13 3 -6 11 -9 24 -6 29 6 10 43
8 53 -4z m1193 -25 c0 7 3 11 6 7 3 -3 1 -14 -5 -24 -7 -11 -11 -13 -11 -4 0
7 -6 11 -13 8 -7 -3 -13 3 -13 14 0 17 2 17 18 2 13 -12 18 -13 18 -3z m1 -72
c-10 -11 -11 -9 -5 6 6 15 4 17 -6 11 -9 -6 -11 -4 -5 4 5 9 10 10 18 2 8 -8
7 -14 -2 -23z m-1268 7 c-3 -9 -8 -14 -10 -11 -3 3 -2 9 2 15 9 16 15 13 8 -4z
m1335 -73 c2 -6 -6 -10 -16 -9 -12 1 -18 6 -15 14 6 16 25 13 31 -5z m15 -27
c-3 -9 -8 -14 -10 -11 -3 3 -2 9 2 15 9 16 15 13 8 -4z m-1423 -35 c-5 -22 -8
-27 -9 -13 -1 21 9 56 14 51 2 -2 0 -19 -5 -38z m1400 12 c0 -15 -2 -15 -10
-2 -13 20 -13 33 0 25 6 -3 10 -14 10 -23z m27 -64 c-3 -8 -6 -5 -6 6 -1 11 2
17 5 13 3 -3 4 -12 1 -19z m43 -19 c0 -5 -4 -9 -10 -9 -5 0 -10 7 -10 16 0 8
5 12 10 9 6 -3 10 -10 10 -16z m-6 -108 c-2 -2 -4 2 -5 10 0 8 -4 6 -9 -6 -7
-16 -9 -13 -9 16 -1 48 12 59 21 17 3 -18 5 -35 2 -37z m-1534 -1 c0 -5 -5
-10 -11 -10 -5 0 -7 5 -4 10 3 6 8 10 11 10 2 0 4 -4 4 -10z m1567 -47 c-3
-10 -5 -2 -5 17 0 19 2 27 5 18 2 -10 2 -26 0 -35z m-1554 -15 c7 -4 6 -12 -2
-22 -7 -9 -11 -24 -8 -35 2 -10 1 -25 -4 -32 -6 -10 -9 -7 -10 11 -1 25 -1 30
9 64 3 12 1 17 -5 13 -7 -5 -9 1 -5 15 4 16 7 18 10 8 3 -8 10 -18 15 -22z
m1514 10 c-3 -8 -6 -5 -6 6 -1 11 2 17 5 13 3 -3 4 -12 1 -19z m20 -40 c-3 -7
-5 -2 -5 12 0 14 2 19 5 13 2 -7 2 -19 0 -25z m-1520 -20 c-3 -8 -6 -5 -6 6
-1 11 2 17 5 13 3 -3 4 -12 1 -19z m1535 -30 c-6 -6 -7 0 -4 19 5 21 7 23 10
9 2 -10 0 -22 -6 -28z m-1555 -60 c-3 -8 -6 -5 -6 6 -1 11 2 17 5 13 3 -3 4
-12 1 -19z m-10 -40 c-3 -8 -6 -5 -6 6 -1 11 2 17 5 13 3 -3 4 -12 1 -19z m22
-91 c-1 -23 -5 -55 -9 -72 -6 -22 -8 -9 -9 48 -1 50 3 76 9 72 6 -3 9 -25 9
-48z m-5 -159 c-4 -29 -11 -57 -16 -63 -10 -10 -4 54 8 98 10 35 15 16 8 -35z
m1533 10 c-3 -8 -6 -5 -6 6 -1 11 2 17 5 13 3 -3 4 -12 1 -19z m-16 -133 c5 4
6 -1 2 -10 -5 -13 -7 -14 -14 -3 -5 7 -8 18 -8 23 0 6 3 4 6 -3 2 -6 9 -10 14
-7z m-5 -83 c-11 -10 -15 4 -8 28 l7 25 3 -23 c2 -13 1 -26 -2 -30z m-1450 -5
c-3 -14 1 -33 10 -46 9 -12 13 -25 10 -28 -3 -3 -9 2 -12 11 -5 13 -9 14 -14
6 -7 -11 -7 1 -1 68 1 6 4 12 7 12 3 0 4 -10 0 -23z m1419 -68 c-5 -7 -11 -6
-21 2 -10 8 -14 8 -14 0 0 -6 -6 -11 -12 -11 -7 0 -1 11 12 24 20 18 27 20 33
9 4 -7 5 -18 2 -24z m-1337 -42 c8 -10 5 -13 -13 -15 -18 -1 -23 2 -19 13 7
18 18 19 32 2z m1247 -27 c-9 -10 -14 -24 -10 -29 3 -6 2 -11 -4 -11 -5 0 -11
8 -14 18 -4 20 21 54 35 46 5 -3 2 -14 -7 -24z m-1210 -11 c2 -3 -8 -5 -25 -5
-16 0 -27 3 -25 6 5 8 42 6 50 -1z m30 -29 c-3 -5 -13 -10 -21 -10 -8 0 -12 5
-9 10 3 6 13 10 21 10 8 0 12 -4 9 -10z m1115 0 c0 -5 -5 -10 -11 -10 -5 0 -7
5 -4 10 3 6 8 10 11 10 2 0 4 -4 4 -10z m-1086 -35 c11 -8 15 -15 10 -15 -6 0
-19 7 -30 15 -10 8 -14 14 -9 14 6 0 19 -6 29 -14z m1079 1 c4 -10 1 -13 -8
-9 -8 3 -12 9 -9 14 7 12 11 11 17 -5z m-69 -18 c-5 -8 -2 -9 9 -5 10 3 17 2
17 -4 0 -12 -28 -24 -37 -16 -6 7 3 37 12 37 4 0 3 -5 -1 -12z m-964 -18 c0
-5 -7 -7 -15 -4 -8 4 -15 8 -15 10 0 2 7 4 15 4 8 0 15 -4 15 -10z m43 3 c-7
-2 -19 -2 -25 0 -7 3 -2 5 12 5 14 0 19 -2 13 -5z m70 -30 c-7 -2 -19 -2 -25
0 -7 3 -2 5 12 5 14 0 19 -2 13 -5z m54 -9 c-3 -3 -12 -4 -19 -1 -8 3 -5 6 6
6 11 1 17 -2 13 -5z m680 0 c-3 -3 -12 -4 -19 -1 -8 3 -5 6 6 6 11 1 17 -2 13
-5z m-520 -10 c-3 -3 -12 -4 -19 -1 -8 3 -5 6 6 6 11 1 17 -2 13 -5z m324 -3
c-9 -6 11 -8 57 -7 39 2 69 -1 66 -6 -6 -9 -97 -11 -144 -2 -22 5 -28 9 -18
15 7 5 22 9 33 9 16 0 17 -2 6 -9z m232 2 c3 -5 -11 -9 -31 -10 -32 -1 -34 0
-12 7 34 11 38 11 43 3z m-690 -10 c-7 -2 -21 -2 -30 0 -10 3 -4 5 12 5 17 0
24 -2 18 -5z m112 -3 c14 -6 2 -9 -40 -9 -42 0 -54 3 -40 9 11 5 29 9 40 9 11
0 29 -4 40 -9z m58 -7 c-7 -2 -19 -2 -25 0 -7 3 -2 5 12 5 14 0 19 -2 13 -5z
m150 0 c-7 -2 -19 -2 -25 0 -7 3 -2 5 12 5 14 0 19 -2 13 -5z m-139 -193 c21
-4 55 -6 75 -3 20 2 56 0 81 -6 46 -10 65 -6 41 9 -8 4 16 6 55 3 84 -7 108
-21 27 -17 -43 3 -51 1 -33 -5 23 -8 23 -9 -10 -10 -19 0 -52 3 -74 8 -23 6
-63 6 -101 0 -49 -8 -73 -7 -111 5 -34 10 -42 15 -24 15 21 1 22 3 10 12 -12
9 -11 9 5 4 11 -4 37 -11 59 -15z m263 14 c-3 -3 -12 -4 -19 -1 -8 3 -5 6 6 6
11 1 17 -2 13 -5z m-545 -82 c-7 -2 -10 -7 -8 -10 2 -4 -7 -8 -21 -9 -17 -1
-22 2 -13 7 10 6 9 9 -6 13 -10 2 -6 3 9 1 16 -2 25 0 22 6 -4 6 1 7 11 3 11
-4 13 -8 6 -11z m819 -1 c-12 -8 -12 -10 0 -14 8 -2 5 -3 -6 -1 -11 2 -33 4
-50 5 -30 2 -30 2 5 9 54 11 68 12 51 1z m64 -1 c-3 -5 -11 -10 -16 -10 -6 0
-7 5 -4 10 3 6 11 10 16 10 6 0 7 -4 4 -10z m5 -34 c0 -2 -7 -7 -16 -10 -8 -3
-12 -2 -9 4 6 10 25 14 25 6z m-1130 -36 c0 -5 -5 -10 -11 -10 -5 0 -7 5 -4
10 3 6 8 10 11 10 2 0 4 -4 4 -10z m60 -5 c-7 -8 -17 -12 -23 -8 -6 4 -3 9 9
14 27 11 28 11 14 -6z m1130 5 c0 -5 8 -7 18 -4 13 5 14 4 3 -4 -15 -11 -41
-5 -41 9 0 5 5 9 10 9 6 0 10 -4 10 -10z m64 1 c3 -5 0 -11 -7 -14 -8 -3 -14
1 -14 9 0 16 13 19 21 5z m63 -69 c-9 -2 -27 6 -39 18 l-23 22 39 -19 c24 -11
33 -19 23 -21z m-1411 -27 c1 -8 -1 -13 -6 -10 -14 9 -41 -7 -36 -21 3 -8 -5
-19 -17 -25 -19 -11 -21 -10 -9 3 10 13 10 17 0 21 -7 2 3 12 24 22 21 10 34
23 31 29 -3 6 -2 7 2 3 5 -4 10 -14 11 -22z m1490 18 c-8 -8 -57 -12 -52 -5 2
4 16 8 31 8 14 1 24 0 21 -3z m34 -13 c0 -5 -2 -10 -4 -10 -3 0 -8 5 -11 10
-3 6 -1 10 4 10 6 0 11 -4 11 -10z m-19 -20 c10 -6 19 -15 19 -21 0 -6 -7 -3
-16 5 -18 18 -39 22 -28 4 4 -7 3 -8 -5 -4 -6 4 -9 12 -6 17 8 11 12 11 36 -1z
m-1600 -63 c-10 -9 -11 -8 -5 6 3 10 9 15 12 12 3 -3 0 -11 -7 -18z m1639 17
c0 -8 -19 -13 -24 -6 -3 5 1 9 9 9 8 0 15 -2 15 -3z m60 -41 c0 -6 -5 -15 -12
-19 -8 -5 -9 -2 -5 10 5 13 3 17 -6 13 -7 -3 -13 3 -13 13 0 14 4 15 18 6 10
-6 18 -16 18 -23z m-1725 7 c3 -6 -1 -7 -9 -4 -18 7 -21 14 -7 14 6 0 13 -4
16 -10z m-90 -49 c3 -5 2 -12 -3 -15 -5 -3 -9 1 -9 9 0 17 3 19 12 6z m45 -5
c-7 -7 -13 -7 -20 0 -6 6 -3 10 10 10 13 0 16 -4 10 -10z m1846 2 c8 -12 -24
-40 -38 -32 -10 6 9 44 22 44 5 0 12 -5 16 -12z m-1866 -22 c0 -3 -4 -8 -10
-11 -5 -3 -10 -1 -10 4 0 6 5 11 10 11 6 0 10 -2 10 -4z m-36 -36 c-6 -6 -10
-3 -10 10 0 13 4 16 10 10 7 -7 7 -13 0 -20z m-78 -30 c0 -12 -4 -16 -9 -11
-5 5 -6 14 -3 20 10 15 12 14 12 -9z m2034 5 c7 -8 16 -12 21 -9 15 9 10 -13
-6 -26 -13 -11 -14 -10 -8 5 5 14 3 17 -10 12 -11 -4 -14 -2 -10 9 4 10 0 12
-13 7 -12 -4 -15 -3 -10 5 10 16 21 15 36 -3z m-2026 -50 c-4 -8 -11 -15 -16
-15 -6 0 -5 6 2 15 7 8 14 15 16 15 2 0 1 -7 -2 -15z m2079 -2 c4 -3 2 -12 -4
-20 -9 -10 -15 -10 -25 -2 -8 6 -11 15 -8 20 6 11 28 12 37 2z m-2133 -65 c0
-5 -4 -6 -10 -3 -10 6 -15 -9 -10 -30 1 -5 -2 -7 -6 -2 -11 10 -13 47 -2 41
11 -7 10 3 -3 29 -10 21 -9 21 10 -2 12 -13 21 -27 21 -33z m2155 28 c0 -13
-4 -28 -8 -32 -4 -5 -5 0 -1 11 6 15 4 17 -9 12 -21 -8 -21 -3 -1 17 20 20 20
20 19 -8z m55 -98 c0 -5 -7 -8 -15 -8 -17 0 -18 2 -9 25 5 13 8 14 15 3 5 -7
9 -16 9 -20z m-2287 -2 c6 -16 -2 -28 -14 -20 -12 7 -11 34 0 34 5 0 11 -6 14
-14z m32 4 c3 -5 1 -10 -4 -10 -6 0 -11 5 -11 10 0 6 2 10 4 10 3 0 8 -4 11
-10z m-38 -72 c-3 -7 -5 -2 -5 12 0 14 2 19 5 13 2 -7 2 -19 0 -25z m-23 6 c3
-8 2 -12 -4 -9 -6 3 -10 10 -10 16 0 14 7 11 14 -7z m2368 -57 c-11 -21 -11
-21 -9 3 1 15 -3 24 -10 23 -10 -2 -10 3 -1 23 l12 26 9 -27 c6 -17 5 -35 -1
-48z m-2412 -4 c0 -5 -5 -15 -10 -23 -8 -12 -10 -11 -10 8 0 12 5 22 10 22 6
0 10 -3 10 -7z m2457 -25 c-3 -8 -6 -5 -6 6 -1 11 2 17 5 13 3 -3 4 -12 1 -19z
m-2445 -28 c-4 -28 -22 -33 -22 -6 0 9 19 36 25 36 1 0 0 -13 -3 -30z m-41
-47 c-8 -15 -10 -15 -11 -2 0 17 10 32 18 25 2 -3 -1 -13 -7 -23z m2510 -70
c-12 -20 -14 -14 -5 12 4 9 9 14 11 11 3 -2 0 -13 -6 -23z m-2544 -20 c-3 -10
-5 -4 -5 12 0 17 2 24 5 18 2 -7 2 -21 0 -30z m7 -60 c-3 -16 -9 -32 -14 -37
-8 -8 -5 15 6 52 7 23 13 12 8 -15z m-31 -3 c-3 -11 -9 -20 -13 -20 -5 0 -6 9
-3 20 3 11 9 20 13 20 5 0 6 -9 3 -20z m2627 5 c0 -8 -4 -15 -10 -15 -5 0 -7
7 -4 15 4 8 8 15 10 15 2 0 4 -7 4 -15z m-2673 -72 c-3 -10 -5 -2 -5 17 0 19
2 27 5 18 2 -10 2 -26 0 -35z m2687 22 c-3 -14 -10 -49 -14 -78 l-8 -52 -1 52
c-1 48 12 103 24 103 3 0 3 -11 -1 -25z"/>
<path d="M2609 1623 c-13 -16 -12 -17 4 -4 16 13 21 21 13 21 -2 0 -10 -8 -17
-17z"/>
<path d="M1898 1233 c7 -3 16 -2 19 1 4 3 -2 6 -13 5 -11 0 -14 -3 -6 -6z"/>
<path d="M2935 860 c3 -5 8 -10 11 -10 2 0 4 5 4 10 0 6 -5 10 -11 10 -5 0 -7
-4 -4 -10z"/>
</g>
</svg>
